<svg width="210" height="210" viewBox="0 0 210 210" fill="none" xmlns="http://www.w3.org/2000/svg">
<path d="M23.3334 210C16.9167 210 11.4217 207.713 6.84835 203.14C2.27502 198.567 -0.00775797 193.076 1.98076e-05 186.667V23.3334C1.98076e-05 16.9167 2.28669 11.4217 6.86002 6.84835C11.4334 2.27502 16.9245 -0.00775797 23.3334 1.98076e-05H186.667C193.083 1.98076e-05 198.578 2.28669 203.152 6.86002C207.725 11.4334 210.008 16.9245 210 23.3334V186.667C210 193.083 207.713 198.578 203.14 203.152C198.567 207.725 193.076 210.008 186.667 210H23.3334ZM23.3334 186.667H186.667V23.3334H23.3334V186.667ZM35 163.333H175L131.25 105L96.25 151.667L70 116.667L35 163.333Z" fill="#E1E1DF"/>
</svg>
